<?xml version="1.0" standalone="yes"?>

<svg version="1.1" viewBox="0.0 0.0 81.0 81.0" fill="none" stroke="none" stroke-linecap="square" stroke-miterlimit="10" xmlns="http://www.w3.org/2000/svg" xmlns:xlink="http://www.w3.org/1999/xlink"><clipPath id="p.0"><path d="m0 0l81.0 0l0 81.0l-81.0 0l0 -81.0z" clip-rule="nonzero"></path></clipPath><g clip-path="url(#p.0)"><path fill="#000000" fill-opacity="0.0" d="m0 0l81.0 0l0 81.0l-81.0 0z" fill-rule="evenodd"></path><path fill="#000000" fill-opacity="0.0" d="m11.695524 31.906809l0 0c0 -11.184853 9.045963 -20.251968 20.204725 -20.251968l0 0c5.3586235 0 10.497776 2.1336832 14.286896 5.9316645c3.7891235 3.7979813 5.9178276 8.949148 5.9178276 14.320303l0 0c0 11.1848545 -9.045963 20.25197 -20.204723 20.25197l0 0c-11.158762 0 -20.204725 -9.067116 -20.204725 -20.25197z" fill-rule="evenodd"></path><path stroke="#333333" stroke-width="8.0" stroke-linejoin="round" stroke-linecap="butt" d="m11.695524 31.906809l0 0c0 -11.184853 9.045963 -20.251968 20.204725 -20.251968l0 0c5.3586235 0 10.497776 2.1336832 14.286896 5.9316645c3.7891235 3.7979813 5.9178276 8.949148 5.9178276 14.320303l0 0c0 11.1848545 -9.045963 20.25197 -20.204723 20.25197l0 0c-11.158762 0 -20.204725 -9.067116 -20.204725 -20.25197z" fill-rule="evenodd"></path><path fill="#000000" fill-opacity="0.0" d="m46.187145 46.227116l23.118114 23.118107" fill-rule="evenodd"></path><path stroke="#333333" stroke-width="8.0" stroke-linejoin="round" stroke-linecap="butt" d="m46.187145 46.227116l23.118114 23.118107" fill-rule="evenodd"></path><path fill="#333333" d="m67.24147 69.18635l0 0c0 -1.1045685 0.86722565 -2.0 1.9370041 -2.0l0 0c0.5137329 0 1.0064163 0.21071625 1.3696747 0.58579254c0.36325836 0.37506866 0.56733704 0.88378143 0.56733704 1.4142075l0 0c0 1.1045761 -0.86722565 2.0 -1.9370117 2.0l0 0c-1.0697784 0 -1.9370041 -0.8954239 -1.9370041 -2.0z" fill-rule="evenodd"></path><path stroke="#333333" stroke-width="4.0" stroke-linejoin="round" stroke-linecap="butt" d="m67.24147 69.18635l0 0c0 -1.1045685 0.86722565 -2.0 1.9370041 -2.0l0 0c0.5137329 0 1.0064163 0.21071625 1.3696747 0.58579254c0.36325836 0.37506866 0.56733704 0.88378143 0.56733704 1.4142075l0 0c0 1.1045761 -0.86722565 2.0 -1.9370117 2.0l0 0c-1.0697784 0 -1.9370041 -0.8954239 -1.9370041 -2.0z" fill-rule="evenodd"></path></g></svg>

